G04 Layer_Color=20142*
%FSLAX25Y25*%
%MOIN*%
G70*
G01*
G75*
%ADD36R,0.04800X0.06500*%
G04:AMPARAMS|DCode=37|XSize=43.43mil|YSize=43.43mil|CornerRadius=8.43mil|HoleSize=0mil|Usage=FLASHONLY|Rotation=0.000|XOffset=0mil|YOffset=0mil|HoleType=Round|Shape=RoundedRectangle|*
%AMROUNDEDRECTD37*
21,1,0.04343,0.02658,0,0,0.0*
21,1,0.02658,0.04343,0,0,0.0*
1,1,0.01686,0.01329,-0.01329*
1,1,0.01686,-0.01329,-0.01329*
1,1,0.01686,-0.01329,0.01329*
1,1,0.01686,0.01329,0.01329*
%
%ADD37ROUNDEDRECTD37*%
%ADD38R,0.04343X0.05524*%
%ADD39R,0.04600X0.04300*%
%ADD40R,0.05131X0.03162*%
%ADD41O,0.13099X0.07099*%
G04:AMPARAMS|DCode=42|XSize=70.99mil|YSize=130.99mil|CornerRadius=19.75mil|HoleSize=0mil|Usage=FLASHONLY|Rotation=270.000|XOffset=0mil|YOffset=0mil|HoleType=Round|Shape=RoundedRectangle|*
%AMROUNDEDRECTD42*
21,1,0.07099,0.09150,0,0,270.0*
21,1,0.03150,0.13099,0,0,270.0*
1,1,0.03950,-0.04575,-0.01575*
1,1,0.03950,-0.04575,0.01575*
1,1,0.03950,0.04575,0.01575*
1,1,0.03950,0.04575,-0.01575*
%
%ADD42ROUNDEDRECTD42*%
%ADD43O,0.10052X0.03556*%
%ADD44R,0.06300X0.06300*%
%ADD45C,0.07300*%
%ADD46O,0.08800X0.06800*%
G04:AMPARAMS|DCode=47|XSize=68mil|YSize=88mil|CornerRadius=19mil|HoleSize=0mil|Usage=FLASHONLY|Rotation=270.000|XOffset=0mil|YOffset=0mil|HoleType=Round|Shape=RoundedRectangle|*
%AMROUNDEDRECTD47*
21,1,0.06800,0.05000,0,0,270.0*
21,1,0.03000,0.08800,0,0,270.0*
1,1,0.03800,-0.02500,-0.01500*
1,1,0.03800,-0.02500,0.01500*
1,1,0.03800,0.02500,0.01500*
1,1,0.03800,0.02500,-0.01500*
%
%ADD47ROUNDEDRECTD47*%
%ADD48C,0.05800*%
%ADD49C,0.07100*%
%ADD50C,0.04800*%
D36*
X136437Y187500D02*
D03*
X128500D02*
D03*
D37*
X137150Y125000D02*
D03*
X130850Y125000D02*
D03*
X256650Y179500D02*
D03*
X250350Y179500D02*
D03*
Y172500D02*
D03*
X256650Y172500D02*
D03*
X250350Y165500D02*
D03*
X256650Y165500D02*
D03*
X152350Y135000D02*
D03*
X158650Y135000D02*
D03*
X130850Y175000D02*
D03*
X137150Y175000D02*
D03*
X130850Y155000D02*
D03*
X137150Y155000D02*
D03*
X130850Y135000D02*
D03*
X137150Y135000D02*
D03*
X152350Y142500D02*
D03*
X158650Y142500D02*
D03*
D38*
X159240Y126500D02*
D03*
X151760D02*
D03*
X194760Y128000D02*
D03*
X202240D02*
D03*
X194760Y118500D02*
D03*
X202240D02*
D03*
D39*
X250350Y159000D02*
D03*
X256650D02*
D03*
X185650Y185500D02*
D03*
X179350D02*
D03*
X158650Y150000D02*
D03*
X152350D02*
D03*
D40*
X152043Y171260D02*
D03*
Y178740D02*
D03*
X144957Y175000D02*
D03*
X179543Y120260D02*
D03*
Y127740D02*
D03*
X172457Y124000D02*
D03*
D41*
X119000Y125000D02*
D03*
Y135000D02*
D03*
Y145000D02*
D03*
Y155000D02*
D03*
Y165000D02*
D03*
D42*
Y175000D02*
D03*
D43*
X172756Y178000D02*
D03*
Y173000D02*
D03*
Y168000D02*
D03*
Y163000D02*
D03*
Y158000D02*
D03*
Y153000D02*
D03*
Y148000D02*
D03*
X192244Y178000D02*
D03*
Y173000D02*
D03*
Y168000D02*
D03*
Y163000D02*
D03*
Y158000D02*
D03*
Y153000D02*
D03*
Y148000D02*
D03*
D44*
X211071Y118500D02*
D03*
X219929D02*
D03*
X211071Y128000D02*
D03*
X219929D02*
D03*
D45*
X227500Y177500D02*
D03*
X217500D02*
D03*
X227500Y163500D02*
D03*
X217500D02*
D03*
D46*
X278800Y149500D02*
D03*
Y139500D02*
D03*
Y129500D02*
D03*
Y179500D02*
D03*
Y159500D02*
D03*
Y169500D02*
D03*
D47*
Y189500D02*
D03*
D48*
X133500Y163000D02*
D03*
X177000Y139500D02*
D03*
X288500Y164000D02*
D03*
X206000Y139500D02*
D03*
D49*
X119000Y175000D02*
D03*
Y165000D02*
D03*
Y155000D02*
D03*
Y145000D02*
D03*
Y135000D02*
D03*
Y125000D02*
D03*
D50*
X197500Y136000D02*
D03*
X143500Y113000D02*
D03*
X162500Y175000D02*
D03*
Y185000D02*
D03*
X151500D02*
D03*
X192500Y185500D02*
D03*
X113000Y187000D02*
D03*
X158000Y165500D02*
D03*
M02*
