G04 Layer_Physical_Order=1*
G04 Layer_Color=25308*
%FSLAX25Y25*%
%MOIN*%
G70*
G01*
G75*
%ADD10R,0.04000X0.05700*%
G04:AMPARAMS|DCode=11|XSize=35.43mil|YSize=35.43mil|CornerRadius=4.43mil|HoleSize=0mil|Usage=FLASHONLY|Rotation=0.000|XOffset=0mil|YOffset=0mil|HoleType=Round|Shape=RoundedRectangle|*
%AMROUNDEDRECTD11*
21,1,0.03543,0.02658,0,0,0.0*
21,1,0.02658,0.03543,0,0,0.0*
1,1,0.00886,0.01329,-0.01329*
1,1,0.00886,-0.01329,-0.01329*
1,1,0.00886,-0.01329,0.01329*
1,1,0.00886,0.01329,0.01329*
%
%ADD11ROUNDEDRECTD11*%
%ADD12R,0.03543X0.04724*%
%ADD13R,0.03800X0.03500*%
%ADD14R,0.04331X0.02362*%
%ADD15O,0.12299X0.06299*%
G04:AMPARAMS|DCode=16|XSize=62.99mil|YSize=122.99mil|CornerRadius=15.75mil|HoleSize=0mil|Usage=FLASHONLY|Rotation=270.000|XOffset=0mil|YOffset=0mil|HoleType=Round|Shape=RoundedRectangle|*
%AMROUNDEDRECTD16*
21,1,0.06299,0.09150,0,0,270.0*
21,1,0.03150,0.12299,0,0,270.0*
1,1,0.03150,-0.04575,-0.01575*
1,1,0.03150,-0.04575,0.01575*
1,1,0.03150,0.04575,0.01575*
1,1,0.03150,0.04575,-0.01575*
%
%ADD16ROUNDEDRECTD16*%
%ADD17O,0.09252X0.02756*%
%ADD18R,0.05500X0.05500*%
%ADD19C,0.02000*%
%ADD20C,0.05000*%
%ADD21C,0.01000*%
%ADD22C,0.06500*%
%ADD23O,0.08000X0.06000*%
G04:AMPARAMS|DCode=24|XSize=60mil|YSize=80mil|CornerRadius=15mil|HoleSize=0mil|Usage=FLASHONLY|Rotation=270.000|XOffset=0mil|YOffset=0mil|HoleType=Round|Shape=RoundedRectangle|*
%AMROUNDEDRECTD24*
21,1,0.06000,0.05000,0,0,270.0*
21,1,0.03000,0.08000,0,0,270.0*
1,1,0.03000,-0.02500,-0.01500*
1,1,0.03000,-0.02500,0.01500*
1,1,0.03000,0.02500,0.01500*
1,1,0.03000,0.02500,-0.01500*
%
%ADD24ROUNDEDRECTD24*%
%ADD25C,0.05000*%
%ADD26C,0.06300*%
%ADD27C,0.04000*%
G36*
X287500Y177500D02*
X287000Y177000D01*
X282500Y172500D01*
X282481Y172485D01*
X281817Y172994D01*
X280844Y173397D01*
X279800Y173535D01*
X279300D01*
Y169500D01*
Y165465D01*
X279800D01*
X280156Y165512D01*
X280500Y164500D01*
X280156Y163488D01*
X279800Y163534D01*
X277800D01*
X276756Y163397D01*
X275783Y162994D01*
X274947Y162353D01*
X274306Y161517D01*
X273903Y160544D01*
X273765Y159500D01*
X273903Y158456D01*
X274306Y157483D01*
X274947Y156647D01*
X275783Y156006D01*
X276756Y155603D01*
X277800Y155465D01*
X279800D01*
X280844Y155603D01*
X281817Y156006D01*
X282653Y156647D01*
X283294Y157483D01*
X283697Y158456D01*
X283835Y159500D01*
X287000D01*
X287500Y159000D01*
Y107500D01*
X107500D01*
Y125993D01*
X108000Y126145D01*
X108058Y126058D01*
X110558Y123558D01*
X111220Y123116D01*
X112000Y122961D01*
X112353D01*
X112375Y122907D01*
X113040Y122040D01*
X113907Y121375D01*
X114917Y120957D01*
X116000Y120815D01*
X118997D01*
X119000Y120814D01*
X119003Y120815D01*
X122000D01*
X123083Y120957D01*
X124093Y121375D01*
X124960Y122040D01*
X125625Y122907D01*
X125647Y122961D01*
X128261D01*
X128481Y122631D01*
X128959Y122312D01*
X129522Y122200D01*
X132179D01*
X132742Y122312D01*
X133219Y122631D01*
X133538Y123108D01*
X133650Y123671D01*
Y126329D01*
X133538Y126892D01*
X133219Y127369D01*
X132742Y127688D01*
X132179Y127800D01*
X129522D01*
X128959Y127688D01*
X128481Y127369D01*
X128261Y127039D01*
X125647D01*
X125625Y127093D01*
X124960Y127960D01*
X124093Y128625D01*
X123083Y129043D01*
X122000Y129185D01*
X119003D01*
X119000Y129186D01*
X118997Y129185D01*
X116000D01*
X114917Y129043D01*
X113907Y128625D01*
X113040Y127960D01*
X112787Y127629D01*
X112288Y127596D01*
X111539Y128345D01*
Y133619D01*
X112039Y133719D01*
X112375Y132907D01*
X113040Y132041D01*
X113907Y131375D01*
X114917Y130957D01*
X116000Y130815D01*
X118997D01*
X119000Y130814D01*
X119003Y130815D01*
X122000D01*
X123083Y130957D01*
X124093Y131375D01*
X124960Y132041D01*
X125625Y132907D01*
X125647Y132961D01*
X128261D01*
X128481Y132631D01*
X128959Y132312D01*
X129522Y132200D01*
X132179D01*
X132742Y132312D01*
X133219Y132631D01*
X133538Y133108D01*
X133650Y133671D01*
Y136329D01*
X133538Y136892D01*
X133219Y137369D01*
X132742Y137688D01*
X132179Y137800D01*
X129522D01*
X128959Y137688D01*
X128481Y137369D01*
X128261Y137039D01*
X125647D01*
X125625Y137093D01*
X124960Y137960D01*
X124093Y138625D01*
X123083Y139043D01*
X122000Y139185D01*
X119003D01*
X119000Y139186D01*
X118997Y139185D01*
X116000D01*
X114917Y139043D01*
X113907Y138625D01*
X113040Y137960D01*
X112375Y137093D01*
X112039Y136281D01*
X111539Y136381D01*
Y142961D01*
X112353D01*
X112375Y142907D01*
X113040Y142041D01*
X113907Y141375D01*
X114917Y140957D01*
X116000Y140815D01*
X118997D01*
X119000Y140814D01*
X119003Y140815D01*
X122000D01*
X123083Y140957D01*
X124093Y141375D01*
X124960Y142041D01*
X125625Y142907D01*
X126043Y143917D01*
X126185Y145000D01*
X126043Y146083D01*
X125625Y147093D01*
X124960Y147959D01*
X124093Y148625D01*
X123083Y149043D01*
X122000Y149185D01*
X119003D01*
X119000Y149186D01*
X118997Y149185D01*
X116000D01*
X114917Y149043D01*
X113907Y148625D01*
X113040Y147959D01*
X112375Y147093D01*
X112353Y147039D01*
X111539D01*
Y153619D01*
X112039Y153719D01*
X112375Y152907D01*
X113040Y152041D01*
X113907Y151375D01*
X114917Y150957D01*
X116000Y150815D01*
X118997D01*
X119000Y150814D01*
X119003Y150815D01*
X122000D01*
X123083Y150957D01*
X124093Y151375D01*
X124960Y152041D01*
X125625Y152907D01*
X125647Y152961D01*
X128261D01*
X128481Y152631D01*
X128959Y152312D01*
X129522Y152200D01*
X132179D01*
X132742Y152312D01*
X133219Y152631D01*
X133538Y153108D01*
X133650Y153671D01*
Y156329D01*
X133538Y156892D01*
X133219Y157369D01*
X132742Y157688D01*
X132179Y157800D01*
X129522D01*
X128959Y157688D01*
X128481Y157369D01*
X128261Y157039D01*
X125647D01*
X125625Y157093D01*
X124960Y157959D01*
X124093Y158625D01*
X123083Y159043D01*
X122000Y159185D01*
X119003D01*
X119000Y159186D01*
X118997Y159185D01*
X116000D01*
X114917Y159043D01*
X113907Y158625D01*
X113040Y157959D01*
X112375Y157093D01*
X112039Y156281D01*
X111539Y156381D01*
Y162155D01*
X111982Y162598D01*
X112646Y162555D01*
X113040Y162040D01*
X113907Y161375D01*
X114917Y160957D01*
X116000Y160815D01*
X118997D01*
X119000Y160814D01*
X119003Y160815D01*
X122000D01*
X123083Y160957D01*
X124093Y161375D01*
X124960Y162040D01*
X125625Y162907D01*
X126043Y163917D01*
X126185Y165000D01*
X126043Y166083D01*
X125625Y167093D01*
X124960Y167959D01*
X124093Y168625D01*
X123083Y169043D01*
X122000Y169185D01*
X119003D01*
X119000Y169186D01*
X118997Y169185D01*
X116000D01*
X114917Y169043D01*
X113907Y168625D01*
X113040Y167959D01*
X112375Y167093D01*
X112353Y167039D01*
X111500D01*
X110720Y166884D01*
X110058Y166442D01*
X108058Y164442D01*
X108000Y164355D01*
X107500Y164507D01*
Y192500D01*
X157963D01*
X158154Y192038D01*
X156058Y189942D01*
X155616Y189280D01*
X155461Y188500D01*
Y181317D01*
X155209Y180921D01*
X154961Y180921D01*
X153539D01*
Y182783D01*
X153640Y182860D01*
X154121Y183487D01*
X154423Y184217D01*
X154526Y185000D01*
X154423Y185783D01*
X154121Y186513D01*
X153640Y187140D01*
X153013Y187620D01*
X152283Y187923D01*
X151500Y188026D01*
X150717Y187923D01*
X149987Y187620D01*
X149360Y187140D01*
X149283Y187039D01*
X147345D01*
X145442Y188942D01*
X144780Y189384D01*
X144000Y189539D01*
X139437D01*
Y191350D01*
X133437D01*
Y183650D01*
X139437D01*
Y185461D01*
X143155D01*
X145058Y183558D01*
X145720Y183116D01*
X146500Y182961D01*
X149283D01*
X149360Y182860D01*
X149461Y182783D01*
Y180921D01*
X148878D01*
Y176559D01*
X154961D01*
X155209Y176559D01*
X155461Y176163D01*
X155461Y176163D01*
Y173837D01*
X155209Y173441D01*
X154961Y173441D01*
X152543D01*
Y171760D01*
X155209D01*
Y171929D01*
X155709Y172081D01*
X156058Y171558D01*
X158675Y168941D01*
X158500Y168587D01*
Y165500D01*
X158000D01*
Y165000D01*
X155040D01*
X155077Y164717D01*
X155379Y163987D01*
X155860Y163360D01*
X156487Y162880D01*
X157217Y162577D01*
X157506Y162539D01*
X157473Y162039D01*
X144039D01*
Y164655D01*
X146398Y167015D01*
X146841Y167676D01*
X146996Y168456D01*
Y172819D01*
X148122D01*
Y177181D01*
X141791D01*
Y177039D01*
X139739D01*
X139519Y177369D01*
X139041Y177688D01*
X138478Y177800D01*
X135821D01*
X135258Y177688D01*
X134781Y177369D01*
X134462Y176892D01*
X134350Y176329D01*
Y173671D01*
X134462Y173108D01*
X134781Y172631D01*
X135258Y172312D01*
X135821Y172200D01*
X138478D01*
X139041Y172312D01*
X139519Y172631D01*
X139739Y172961D01*
X141791D01*
Y172819D01*
X142917D01*
Y169301D01*
X140558Y166942D01*
X140116Y166280D01*
X139961Y165500D01*
Y165039D01*
X136347D01*
X135996Y165496D01*
X135265Y166057D01*
X134414Y166410D01*
X133500Y166530D01*
X132586Y166410D01*
X131735Y166057D01*
X131004Y165496D01*
X130443Y164765D01*
X130090Y163914D01*
X129970Y163000D01*
X130090Y162086D01*
X130443Y161235D01*
X131004Y160504D01*
X131735Y159943D01*
X132586Y159590D01*
X133500Y159470D01*
X134414Y159590D01*
X135265Y159943D01*
X135996Y160504D01*
X136347Y160961D01*
X139961D01*
Y160000D01*
Y157607D01*
X139713Y157474D01*
X139461Y157408D01*
X139041Y157688D01*
X138478Y157800D01*
X135821D01*
X135258Y157688D01*
X134781Y157369D01*
X134462Y156892D01*
X134350Y156329D01*
Y153672D01*
X134462Y153109D01*
X134781Y152631D01*
X135258Y152312D01*
X135821Y152200D01*
X138478D01*
X139041Y152312D01*
X139461Y152593D01*
X139713Y152526D01*
X139961Y152393D01*
Y137607D01*
X139713Y137474D01*
X139461Y137408D01*
X139041Y137688D01*
X138478Y137800D01*
X135821D01*
X135258Y137688D01*
X134781Y137369D01*
X134462Y136892D01*
X134350Y136329D01*
Y133671D01*
X134462Y133108D01*
X134781Y132631D01*
X135258Y132312D01*
X135821Y132200D01*
X138478D01*
X139041Y132312D01*
X139461Y132593D01*
X139713Y132526D01*
X139961Y132393D01*
Y131500D01*
X140116Y130720D01*
X140558Y130058D01*
X145558Y125058D01*
X146220Y124616D01*
X147000Y124461D01*
X148988D01*
Y123138D01*
X154532D01*
Y129862D01*
X148988D01*
Y128539D01*
X147845D01*
X144039Y132345D01*
Y136557D01*
X144539Y136606D01*
X144616Y136220D01*
X145058Y135558D01*
X147058Y133558D01*
X147720Y133116D01*
X148500Y132961D01*
X149761D01*
X149981Y132631D01*
X150459Y132312D01*
X151022Y132200D01*
X153679D01*
X154242Y132312D01*
X154719Y132631D01*
X155038Y133108D01*
X155150Y133671D01*
Y136329D01*
X155038Y136892D01*
X154719Y137369D01*
X154242Y137688D01*
X153679Y137800D01*
X151022D01*
X150459Y137688D01*
X149981Y137369D01*
X149813Y137117D01*
X149299Y137085D01*
X148539Y137845D01*
Y140461D01*
X149761D01*
X149981Y140131D01*
X150459Y139812D01*
X151022Y139700D01*
X153679D01*
X154242Y139812D01*
X154719Y140131D01*
X155038Y140608D01*
X155150Y141171D01*
Y143829D01*
X155038Y144392D01*
X154719Y144869D01*
X154242Y145188D01*
X153679Y145300D01*
X151022D01*
X150459Y145188D01*
X149981Y144869D01*
X149761Y144539D01*
X148539D01*
Y147961D01*
X149450D01*
Y147250D01*
X155250D01*
Y152750D01*
X150583D01*
X150337Y153250D01*
X150500Y153461D01*
X162155D01*
X163208Y152408D01*
X162962Y151947D01*
X162500Y152039D01*
X161550D01*
Y152750D01*
X155750D01*
Y147250D01*
X161550D01*
Y147359D01*
X162050Y147566D01*
X162461Y147155D01*
Y144539D01*
X161239D01*
X161019Y144869D01*
X160541Y145188D01*
X159978Y145300D01*
X157321D01*
X156758Y145188D01*
X156281Y144869D01*
X155962Y144392D01*
X155850Y143829D01*
Y141172D01*
X155962Y140609D01*
X156281Y140131D01*
X156758Y139812D01*
X157321Y139700D01*
X159978D01*
X160541Y139812D01*
X161019Y140131D01*
X161239Y140461D01*
X163655D01*
X166058Y138058D01*
X166720Y137616D01*
X167500Y137461D01*
X174153D01*
X174504Y137004D01*
X175235Y136443D01*
X176086Y136090D01*
X176473Y136039D01*
X176440Y135539D01*
X165345D01*
X164442Y136442D01*
X163780Y136884D01*
X163000Y137039D01*
X161239D01*
X161019Y137369D01*
X160541Y137688D01*
X159978Y137800D01*
X157321D01*
X156758Y137688D01*
X156281Y137369D01*
X155962Y136892D01*
X155850Y136329D01*
Y133671D01*
X155962Y133108D01*
X156281Y132631D01*
X156758Y132312D01*
X157321Y132200D01*
X159978D01*
X160541Y132312D01*
X161019Y132631D01*
X161239Y132961D01*
X162155D01*
X163058Y132058D01*
X163461Y131789D01*
Y128539D01*
X162012D01*
Y129862D01*
X156468D01*
Y123138D01*
X162012D01*
Y124461D01*
X163461D01*
Y124000D01*
Y123345D01*
X162655Y122539D01*
X147345D01*
X143442Y126442D01*
X142780Y126884D01*
X142000Y127039D01*
X139739D01*
X139519Y127369D01*
X139041Y127688D01*
X138478Y127800D01*
X135821D01*
X135258Y127688D01*
X134781Y127369D01*
X134462Y126892D01*
X134350Y126329D01*
Y123671D01*
X134462Y123108D01*
X134781Y122631D01*
X135258Y122312D01*
X135821Y122200D01*
X138478D01*
X139041Y122312D01*
X139519Y122631D01*
X139739Y122961D01*
X141155D01*
X145058Y119058D01*
X145720Y118616D01*
X146500Y118461D01*
X163500D01*
X164280Y118616D01*
X164942Y119058D01*
X166942Y121058D01*
X167384Y121720D01*
X167432Y121961D01*
X169291D01*
Y121819D01*
X175622D01*
Y126181D01*
X169291D01*
Y126039D01*
X167539D01*
Y126500D01*
Y131461D01*
X184500D01*
X185280Y131616D01*
X185942Y132058D01*
X186092Y132208D01*
X186553Y131962D01*
X186461Y131500D01*
Y129779D01*
X182709D01*
Y129921D01*
X176378D01*
Y125559D01*
X182709D01*
Y125701D01*
X186461D01*
Y123000D01*
X186616Y122220D01*
X187058Y121558D01*
X191558Y117058D01*
X191988Y116771D01*
Y115138D01*
X197531D01*
Y121862D01*
X192522D01*
X190539Y123845D01*
Y125961D01*
X191988D01*
Y124638D01*
X197531D01*
Y131362D01*
X191988D01*
Y130039D01*
X190539D01*
Y130655D01*
X193845Y133961D01*
X195283D01*
X195360Y133860D01*
X195987Y133379D01*
X196717Y133077D01*
X197500Y132974D01*
X198283Y133077D01*
X199013Y133379D01*
X199640Y133860D01*
X200120Y134487D01*
X200423Y135217D01*
X200526Y136000D01*
X200423Y136783D01*
X200120Y137513D01*
X199640Y138140D01*
X199013Y138620D01*
X198283Y138923D01*
X197500Y139026D01*
X196717Y138923D01*
X195987Y138620D01*
X195360Y138140D01*
X195283Y138039D01*
X193000D01*
X192538Y137947D01*
X192292Y138408D01*
X193686Y139802D01*
X194128Y140464D01*
X194283Y141244D01*
Y145575D01*
X195492D01*
X196420Y145760D01*
X197206Y146286D01*
X197732Y147072D01*
X197917Y148000D01*
X197732Y148928D01*
X197206Y149714D01*
X196542Y150158D01*
X196511Y150620D01*
X196534Y150719D01*
X196809Y150961D01*
X204655D01*
X223366Y132250D01*
X223232Y131750D01*
X216179D01*
Y124250D01*
X223679D01*
Y125961D01*
X224000D01*
X224780Y126116D01*
X225442Y126558D01*
X226942Y128058D01*
X227384Y128720D01*
X227539Y129500D01*
Y133000D01*
X227447Y133462D01*
X227908Y133708D01*
X228461Y133155D01*
Y123845D01*
X225155Y120539D01*
X223679D01*
Y122250D01*
X216179D01*
Y114750D01*
X223679D01*
Y116461D01*
X226000D01*
X226780Y116616D01*
X227442Y117058D01*
X231942Y121558D01*
X232384Y122220D01*
X232539Y123000D01*
Y134000D01*
X232539Y134000D01*
X232384Y134780D01*
X231942Y135442D01*
X231942Y135442D01*
X230292Y137092D01*
X230538Y137553D01*
X231000Y137461D01*
X274323D01*
X274947Y136647D01*
X275783Y136006D01*
X276756Y135603D01*
X277800Y135466D01*
X279800D01*
X280844Y135603D01*
X281817Y136006D01*
X282653Y136647D01*
X283294Y137483D01*
X283697Y138456D01*
X283835Y139500D01*
X283697Y140544D01*
X283294Y141517D01*
X282653Y142353D01*
X281817Y142994D01*
X280844Y143397D01*
X279800Y143535D01*
X277800D01*
X276756Y143397D01*
X275783Y142994D01*
X274947Y142353D01*
X274323Y141539D01*
X231845D01*
X208942Y164442D01*
X208280Y164884D01*
X207500Y165039D01*
X196721D01*
X196542Y165158D01*
X196511Y165620D01*
X196534Y165719D01*
X196809Y165961D01*
X212155D01*
X213403Y164714D01*
X213359Y164610D01*
X213213Y163500D01*
X213359Y162390D01*
X213788Y161357D01*
X214469Y160469D01*
X215357Y159788D01*
X216390Y159359D01*
X217500Y159213D01*
X218609Y159359D01*
X219643Y159788D01*
X220531Y160469D01*
X221212Y161357D01*
X221641Y162390D01*
X221787Y163500D01*
X221641Y164610D01*
X221212Y165643D01*
X220531Y166531D01*
X219643Y167212D01*
X218609Y167641D01*
X217500Y167787D01*
X216390Y167641D01*
X216286Y167597D01*
X214442Y169442D01*
X213780Y169884D01*
X213000Y170039D01*
X196721D01*
X196542Y170158D01*
X196511Y170620D01*
X196534Y170719D01*
X196809Y170961D01*
X213000D01*
X213780Y171116D01*
X214442Y171558D01*
X216286Y173403D01*
X216390Y173359D01*
X217500Y173213D01*
X218609Y173359D01*
X219643Y173788D01*
X220531Y174469D01*
X221212Y175357D01*
X221641Y176391D01*
X221787Y177500D01*
X221641Y178610D01*
X221212Y179643D01*
X220531Y180531D01*
X219643Y181212D01*
X218609Y181641D01*
X217500Y181787D01*
X216390Y181641D01*
X215357Y181212D01*
X214469Y180531D01*
X213788Y179643D01*
X213359Y178610D01*
X213213Y177500D01*
X213359Y176391D01*
X213403Y176286D01*
X212155Y175039D01*
X196721D01*
X196420Y175240D01*
X196394Y175245D01*
Y175755D01*
X196420Y175760D01*
X197206Y176286D01*
X197732Y177072D01*
X197817Y177500D01*
X186671D01*
X186756Y177072D01*
X187282Y176286D01*
X188068Y175760D01*
X188094Y175755D01*
Y175245D01*
X188068Y175240D01*
X187282Y174714D01*
X186756Y173928D01*
X186572Y173000D01*
X186756Y172072D01*
X187282Y171286D01*
X188068Y170760D01*
X188094Y170755D01*
Y170245D01*
X188068Y170240D01*
X187282Y169714D01*
X186756Y168928D01*
X186572Y168000D01*
X186756Y167072D01*
X187282Y166286D01*
X188068Y165760D01*
X188094Y165755D01*
Y165245D01*
X188068Y165240D01*
X187282Y164714D01*
X186756Y163928D01*
X186572Y163000D01*
X186756Y162072D01*
X187282Y161286D01*
X188068Y160760D01*
X188094Y160755D01*
Y160245D01*
X188068Y160240D01*
X187282Y159714D01*
X186756Y158928D01*
X186572Y158000D01*
X186756Y157072D01*
X187282Y156286D01*
X188068Y155760D01*
X188094Y155755D01*
Y155245D01*
X188068Y155240D01*
X187282Y154714D01*
X186756Y153928D01*
X186572Y153000D01*
X186756Y152072D01*
X187282Y151286D01*
X188068Y150760D01*
X188094Y150755D01*
Y150245D01*
X188068Y150240D01*
X187282Y149714D01*
X186756Y148928D01*
X186572Y148000D01*
X186756Y147072D01*
X187282Y146286D01*
X188068Y145760D01*
X188996Y145575D01*
X190205D01*
Y142089D01*
X183655Y135539D01*
X177560D01*
X177527Y136039D01*
X177914Y136090D01*
X178765Y136443D01*
X179496Y137004D01*
X180057Y137735D01*
X180410Y138586D01*
X180530Y139500D01*
X180410Y140414D01*
X180057Y141265D01*
X179496Y141996D01*
X178765Y142557D01*
X177914Y142910D01*
X177000Y143030D01*
X176086Y142910D01*
X175235Y142557D01*
X174504Y141996D01*
X174153Y141539D01*
X168345D01*
X166539Y143345D01*
Y145961D01*
X168280D01*
X168580Y145760D01*
X169508Y145575D01*
X176004D01*
X176932Y145760D01*
X177232Y145961D01*
X179000D01*
X179780Y146116D01*
X180442Y146558D01*
X183942Y150058D01*
X184384Y150720D01*
X184539Y151500D01*
Y165000D01*
X184384Y165780D01*
X183942Y166442D01*
X180942Y169442D01*
X180280Y169884D01*
X179500Y170039D01*
X177232D01*
X176932Y170240D01*
X176906Y170245D01*
Y170755D01*
X176932Y170760D01*
X177718Y171286D01*
X178244Y172072D01*
X178428Y173000D01*
X178244Y173928D01*
X177718Y174714D01*
X176932Y175240D01*
X176906Y175245D01*
Y175755D01*
X176932Y175760D01*
X177718Y176286D01*
X178244Y177072D01*
X178428Y178000D01*
X178244Y178928D01*
X177718Y179714D01*
X176932Y180240D01*
X176004Y180424D01*
X174795D01*
Y183155D01*
X175101Y183461D01*
X176450D01*
Y182750D01*
X182250D01*
Y188250D01*
X176450D01*
Y187539D01*
X174256D01*
X173476Y187384D01*
X172814Y186942D01*
X171314Y185442D01*
X170872Y184780D01*
X170717Y184000D01*
Y180424D01*
X169508D01*
X168580Y180240D01*
X168280Y180039D01*
X166845D01*
X164570Y182313D01*
X164591Y182823D01*
X164640Y182860D01*
X165120Y183487D01*
X165423Y184217D01*
X165526Y185000D01*
X165423Y185783D01*
X165120Y186513D01*
X164640Y187140D01*
X164013Y187620D01*
X163283Y187923D01*
X162500Y188026D01*
X161717Y187923D01*
X160987Y187620D01*
X160360Y187140D01*
X160039Y186721D01*
X159539Y186891D01*
Y187655D01*
X161345Y189461D01*
X238961D01*
Y183000D01*
X239116Y182220D01*
X239558Y181558D01*
X243058Y178058D01*
X243720Y177616D01*
X244500Y177461D01*
X247761D01*
X247981Y177131D01*
X248459Y176812D01*
X249022Y176700D01*
X251679D01*
X252242Y176812D01*
X252719Y177131D01*
X253038Y177608D01*
X253150Y178171D01*
Y180829D01*
X253038Y181392D01*
X252719Y181869D01*
X252242Y182188D01*
X251679Y182300D01*
X249022D01*
X248459Y182188D01*
X247981Y181869D01*
X247761Y181539D01*
X245345D01*
X243039Y183845D01*
Y189461D01*
X265655D01*
X267058Y188058D01*
X267720Y187616D01*
X268500Y187461D01*
X273858D01*
X273945Y187024D01*
X274498Y186198D01*
X275325Y185645D01*
X276300Y185451D01*
X281300D01*
X282276Y185645D01*
X283102Y186198D01*
X283655Y187024D01*
X283849Y188000D01*
Y191000D01*
X283655Y191975D01*
X283599Y192059D01*
X283835Y192500D01*
X287500D01*
Y177500D01*
D02*
G37*
%LPC*%
G36*
X249850Y158500D02*
X247450D01*
Y156250D01*
X249850D01*
Y158500D01*
D02*
G37*
G36*
X253250D02*
X250850D01*
Y156250D01*
X253250D01*
Y158500D01*
D02*
G37*
G36*
X205500Y142964D02*
X205086Y142910D01*
X204235Y142557D01*
X203504Y141996D01*
X202943Y141265D01*
X202590Y140414D01*
X202536Y140000D01*
X205500D01*
Y142964D01*
D02*
G37*
G36*
X206500D02*
Y140000D01*
X209464D01*
X209410Y140414D01*
X209057Y141265D01*
X208496Y141996D01*
X207765Y142557D01*
X206914Y142910D01*
X206500Y142964D01*
D02*
G37*
G36*
X279800Y153534D02*
X277800D01*
X276756Y153397D01*
X275783Y152994D01*
X274947Y152353D01*
X274306Y151517D01*
X273903Y150544D01*
X273765Y149500D01*
X273903Y148456D01*
X274306Y147483D01*
X274947Y146647D01*
X275783Y146006D01*
X276756Y145603D01*
X277800Y145466D01*
X279800D01*
X280844Y145603D01*
X281817Y146006D01*
X282653Y146647D01*
X283294Y147483D01*
X283697Y148456D01*
X283835Y149500D01*
X283697Y150544D01*
X283294Y151517D01*
X282653Y152353D01*
X281817Y152994D01*
X280844Y153397D01*
X279800Y153534D01*
D02*
G37*
G36*
X251679Y168300D02*
X249022D01*
X248459Y168188D01*
X247981Y167869D01*
X247761Y167539D01*
X239000D01*
X238220Y167384D01*
X237558Y166942D01*
X236155Y165539D01*
X231256D01*
X231212Y165643D01*
X230531Y166531D01*
X229643Y167212D01*
X228609Y167641D01*
X227500Y167787D01*
X226391Y167641D01*
X225357Y167212D01*
X224469Y166531D01*
X223788Y165643D01*
X223359Y164610D01*
X223213Y163500D01*
X223359Y162390D01*
X223788Y161357D01*
X224469Y160469D01*
X225357Y159788D01*
X226391Y159359D01*
X227500Y159213D01*
X228609Y159359D01*
X229643Y159788D01*
X230531Y160469D01*
X231212Y161357D01*
X231256Y161461D01*
X237000D01*
X237780Y161616D01*
X238442Y162058D01*
X239845Y163461D01*
X247761D01*
X247981Y163131D01*
X248459Y162812D01*
X249022Y162700D01*
X251679D01*
X252242Y162812D01*
X252719Y163131D01*
X253038Y163608D01*
X253150Y164171D01*
Y166829D01*
X253038Y167392D01*
X252719Y167869D01*
X252242Y168188D01*
X251679Y168300D01*
D02*
G37*
G36*
X157500Y168460D02*
X157217Y168423D01*
X156487Y168121D01*
X155860Y167640D01*
X155379Y167013D01*
X155077Y166283D01*
X155040Y166000D01*
X157500D01*
Y168460D01*
D02*
G37*
G36*
X151543Y170760D02*
X148878D01*
Y169079D01*
X151543D01*
Y170760D01*
D02*
G37*
G36*
X249850Y161750D02*
X247450D01*
Y159500D01*
X249850D01*
Y161750D01*
D02*
G37*
G36*
X253250D02*
X250850D01*
Y159500D01*
X253250D01*
Y161750D01*
D02*
G37*
G36*
X278300Y169000D02*
X273831D01*
X273903Y168456D01*
X274306Y167483D01*
X274947Y166647D01*
X275783Y166006D01*
X276756Y165603D01*
X277800Y165465D01*
X278300D01*
Y169000D01*
D02*
G37*
G36*
X209464Y139000D02*
X206500D01*
Y136036D01*
X206914Y136090D01*
X207765Y136443D01*
X208496Y137004D01*
X209057Y137735D01*
X209410Y138586D01*
X209464Y139000D01*
D02*
G37*
G36*
X144000Y115960D02*
Y113500D01*
X146460D01*
X146423Y113783D01*
X146121Y114513D01*
X145640Y115140D01*
X145013Y115621D01*
X144283Y115923D01*
X144000Y115960D01*
D02*
G37*
G36*
X179043Y119760D02*
X176378D01*
Y118079D01*
X179043D01*
Y119760D01*
D02*
G37*
G36*
X182709D02*
X180043D01*
Y118079D01*
X182709D01*
Y119760D01*
D02*
G37*
G36*
X143000Y112500D02*
X140540D01*
X140577Y112217D01*
X140879Y111487D01*
X141360Y110860D01*
X141987Y110380D01*
X142717Y110077D01*
X143000Y110040D01*
Y112500D01*
D02*
G37*
G36*
X146460D02*
X144000D01*
Y110040D01*
X144283Y110077D01*
X145013Y110380D01*
X145640Y110860D01*
X146121Y111487D01*
X146423Y112217D01*
X146460Y112500D01*
D02*
G37*
G36*
X143000Y115960D02*
X142717Y115923D01*
X141987Y115621D01*
X141360Y115140D01*
X140879Y114513D01*
X140577Y113783D01*
X140540Y113500D01*
X143000D01*
Y115960D01*
D02*
G37*
G36*
X279800Y133535D02*
X277800D01*
X276756Y133397D01*
X275783Y132994D01*
X274947Y132353D01*
X274306Y131517D01*
X273903Y130544D01*
X273765Y129500D01*
X273903Y128456D01*
X274306Y127483D01*
X274947Y126647D01*
X275783Y126006D01*
X276756Y125603D01*
X277800Y125466D01*
X279800D01*
X280844Y125603D01*
X281817Y126006D01*
X282653Y126647D01*
X283294Y127483D01*
X283697Y128456D01*
X283835Y129500D01*
X283697Y130544D01*
X283294Y131517D01*
X282653Y132353D01*
X281817Y132994D01*
X280844Y133397D01*
X279800Y133535D01*
D02*
G37*
G36*
X214821Y131750D02*
X207321D01*
Y130039D01*
X205012D01*
Y131362D01*
X199469D01*
Y124638D01*
X205012D01*
Y125961D01*
X207321D01*
Y124250D01*
X214821D01*
Y131750D01*
D02*
G37*
G36*
X205500Y139000D02*
X202536D01*
X202590Y138586D01*
X202943Y137735D01*
X203504Y137004D01*
X204235Y136443D01*
X205086Y136090D01*
X205500Y136036D01*
Y139000D01*
D02*
G37*
G36*
X214821Y122250D02*
X207321D01*
Y120539D01*
X205012D01*
Y121862D01*
X199469D01*
Y115138D01*
X205012D01*
Y116461D01*
X207321D01*
Y114750D01*
X214821D01*
Y122250D01*
D02*
G37*
G36*
X179043Y122441D02*
X176378D01*
Y120760D01*
X179043D01*
Y122441D01*
D02*
G37*
G36*
X182709D02*
X180043D01*
Y120760D01*
X182709D01*
Y122441D01*
D02*
G37*
G36*
X115960Y186500D02*
X113500D01*
Y184040D01*
X113783Y184077D01*
X114513Y184379D01*
X115140Y184860D01*
X115621Y185487D01*
X115923Y186217D01*
X115960Y186500D01*
D02*
G37*
G36*
X185150Y188250D02*
X182750D01*
Y186000D01*
X185150D01*
Y188250D01*
D02*
G37*
G36*
X188550D02*
X186150D01*
Y186000D01*
X188550D01*
Y188250D01*
D02*
G37*
G36*
X128000Y187000D02*
X125500D01*
Y183650D01*
X128000D01*
Y187000D01*
D02*
G37*
G36*
X131500D02*
X129000D01*
Y183650D01*
X131500D01*
Y187000D01*
D02*
G37*
G36*
X112500Y186500D02*
X110040D01*
X110077Y186217D01*
X110380Y185487D01*
X110860Y184860D01*
X111487Y184379D01*
X112217Y184077D01*
X112500Y184040D01*
Y186500D01*
D02*
G37*
G36*
X113500Y189960D02*
Y187500D01*
X115960D01*
X115923Y187783D01*
X115621Y188513D01*
X115140Y189140D01*
X114513Y189620D01*
X113783Y189923D01*
X113500Y189960D01*
D02*
G37*
G36*
X128000Y191350D02*
X125500D01*
Y188000D01*
X128000D01*
Y191350D01*
D02*
G37*
G36*
X131500D02*
X129000D01*
Y188000D01*
X131500D01*
Y191350D01*
D02*
G37*
G36*
X192000Y188460D02*
X191717Y188423D01*
X190987Y188120D01*
X190360Y187640D01*
X189880Y187013D01*
X189577Y186283D01*
X189540Y186000D01*
X192000D01*
Y188460D01*
D02*
G37*
G36*
X193000D02*
Y186000D01*
X195460D01*
X195423Y186283D01*
X195121Y187013D01*
X194640Y187640D01*
X194013Y188120D01*
X193283Y188423D01*
X193000Y188460D01*
D02*
G37*
G36*
X112500Y189960D02*
X112217Y189923D01*
X111487Y189620D01*
X110860Y189140D01*
X110380Y188513D01*
X110077Y187783D01*
X110040Y187500D01*
X112500D01*
Y189960D01*
D02*
G37*
G36*
X151543Y173441D02*
X148878D01*
Y171760D01*
X151543D01*
Y173441D01*
D02*
G37*
G36*
X119000Y179186D02*
X118894Y179172D01*
X114425D01*
X113753Y179083D01*
X113127Y178824D01*
X112589Y178411D01*
X112176Y177873D01*
X111917Y177247D01*
X111828Y176575D01*
Y173425D01*
X111917Y172753D01*
X112176Y172127D01*
X112589Y171589D01*
X113127Y171176D01*
X113753Y170917D01*
X114425Y170828D01*
X118894D01*
X119000Y170814D01*
X119106Y170828D01*
X123575D01*
X124247Y170917D01*
X124873Y171176D01*
X125411Y171589D01*
X125824Y172127D01*
X126083Y172753D01*
X126111Y172961D01*
X128261D01*
X128481Y172631D01*
X128959Y172312D01*
X129522Y172200D01*
X132179D01*
X132742Y172312D01*
X133219Y172631D01*
X133538Y173108D01*
X133650Y173671D01*
Y176329D01*
X133538Y176892D01*
X133219Y177369D01*
X132742Y177688D01*
X132179Y177800D01*
X129522D01*
X128959Y177688D01*
X128481Y177369D01*
X128261Y177039D01*
X126111D01*
X126083Y177247D01*
X125824Y177873D01*
X125411Y178411D01*
X124873Y178824D01*
X124247Y179083D01*
X123575Y179172D01*
X119106D01*
X119000Y179186D01*
D02*
G37*
G36*
X191744Y180424D02*
X188996D01*
X188068Y180240D01*
X187282Y179714D01*
X186756Y178928D01*
X186671Y178500D01*
X191744D01*
Y180424D01*
D02*
G37*
G36*
X155209Y170760D02*
X152543D01*
Y169079D01*
X155209D01*
Y170760D01*
D02*
G37*
G36*
X227500Y181787D02*
X226391Y181641D01*
X225357Y181212D01*
X224469Y180531D01*
X223788Y179643D01*
X223359Y178610D01*
X223213Y177500D01*
X223359Y176391D01*
X223788Y175357D01*
X224469Y174469D01*
X225357Y173788D01*
X226391Y173359D01*
X227500Y173213D01*
X228609Y173359D01*
X229643Y173788D01*
X230531Y174469D01*
X231212Y175357D01*
X231256Y175461D01*
X238155D01*
X242558Y171058D01*
X243220Y170616D01*
X244000Y170461D01*
X247761D01*
X247981Y170131D01*
X248459Y169812D01*
X249022Y169700D01*
X251679D01*
X252242Y169812D01*
X252719Y170131D01*
X253038Y170608D01*
X253150Y171171D01*
Y173829D01*
X253038Y174392D01*
X252719Y174869D01*
X252242Y175188D01*
X251679Y175300D01*
X249022D01*
X248459Y175188D01*
X247981Y174869D01*
X247761Y174539D01*
X244845D01*
X240442Y178942D01*
X239780Y179384D01*
X239000Y179539D01*
X231256D01*
X231212Y179643D01*
X230531Y180531D01*
X229643Y181212D01*
X228609Y181641D01*
X227500Y181787D01*
D02*
G37*
G36*
X278300Y173535D02*
X277800D01*
X276756Y173397D01*
X275783Y172994D01*
X274947Y172353D01*
X274306Y171517D01*
X273903Y170544D01*
X273831Y170000D01*
X278300D01*
Y173535D01*
D02*
G37*
G36*
X195460Y185000D02*
X193000D01*
Y182540D01*
X193283Y182577D01*
X194013Y182879D01*
X194640Y183360D01*
X195121Y183987D01*
X195423Y184717D01*
X195460Y185000D01*
D02*
G37*
G36*
X185150D02*
X182750D01*
Y182750D01*
X185150D01*
Y185000D01*
D02*
G37*
G36*
X188550D02*
X186150D01*
Y182750D01*
X188550D01*
Y185000D01*
D02*
G37*
G36*
X195492Y180424D02*
X192744D01*
Y178500D01*
X197817D01*
X197732Y178928D01*
X197206Y179714D01*
X196420Y180240D01*
X195492Y180424D01*
D02*
G37*
G36*
X279800Y183535D02*
X277800D01*
X276756Y183397D01*
X275783Y182994D01*
X274947Y182353D01*
X274323Y181539D01*
X259239D01*
X259019Y181869D01*
X258541Y182188D01*
X257978Y182300D01*
X255321D01*
X254758Y182188D01*
X254281Y181869D01*
X253962Y181392D01*
X253850Y180829D01*
Y178172D01*
X253962Y177609D01*
X254281Y177131D01*
X254758Y176812D01*
X255321Y176700D01*
X257978D01*
X258541Y176812D01*
X259019Y177131D01*
X259239Y177461D01*
X261461D01*
Y174539D01*
X259239D01*
X259019Y174869D01*
X258541Y175188D01*
X257978Y175300D01*
X255321D01*
X254758Y175188D01*
X254281Y174869D01*
X253962Y174392D01*
X253850Y173829D01*
Y171171D01*
X253962Y170608D01*
X254281Y170131D01*
X254758Y169812D01*
X255321Y169700D01*
X257978D01*
X258541Y169812D01*
X259019Y170131D01*
X259239Y170461D01*
X261461D01*
Y167539D01*
X259239D01*
X259019Y167869D01*
X258541Y168188D01*
X257978Y168300D01*
X255321D01*
X254758Y168188D01*
X254281Y167869D01*
X253962Y167392D01*
X253850Y166829D01*
Y164172D01*
X253962Y163609D01*
X254281Y163131D01*
X254758Y162812D01*
X255321Y162700D01*
X257978D01*
X258541Y162812D01*
X259019Y163131D01*
X259239Y163461D01*
X261461D01*
Y161845D01*
X260655Y161039D01*
X259550D01*
Y161750D01*
X253750D01*
Y156250D01*
X259550D01*
Y156961D01*
X261500D01*
X262280Y157116D01*
X262942Y157558D01*
X264942Y159558D01*
X265384Y160220D01*
X265539Y161000D01*
Y165500D01*
Y172500D01*
Y177461D01*
X274323D01*
X274947Y176647D01*
X275783Y176006D01*
X276756Y175603D01*
X277800Y175466D01*
X279800D01*
X280844Y175603D01*
X281817Y176006D01*
X282653Y176647D01*
X283294Y177483D01*
X283697Y178456D01*
X283835Y179500D01*
X283697Y180544D01*
X283294Y181517D01*
X282653Y182353D01*
X281817Y182994D01*
X280844Y183397D01*
X279800Y183535D01*
D02*
G37*
G36*
X192000Y185000D02*
X189540D01*
X189577Y184717D01*
X189880Y183987D01*
X190360Y183360D01*
X190987Y182879D01*
X191717Y182577D01*
X192000Y182540D01*
Y185000D01*
D02*
G37*
%LPD*%
D10*
X136437Y187500D02*
D03*
X128500D02*
D03*
D11*
X137150Y125000D02*
D03*
X130850Y125000D02*
D03*
X256650Y179500D02*
D03*
X250350Y179500D02*
D03*
Y172500D02*
D03*
X256650Y172500D02*
D03*
X250350Y165500D02*
D03*
X256650Y165500D02*
D03*
X152350Y135000D02*
D03*
X158650Y135000D02*
D03*
X130850Y175000D02*
D03*
X137150Y175000D02*
D03*
X130850Y155000D02*
D03*
X137150Y155000D02*
D03*
X130850Y135000D02*
D03*
X137150Y135000D02*
D03*
X152350Y142500D02*
D03*
X158650Y142500D02*
D03*
D12*
X159240Y126500D02*
D03*
X151760D02*
D03*
X194760Y128000D02*
D03*
X202240D02*
D03*
X194760Y118500D02*
D03*
X202240D02*
D03*
D13*
X250350Y159000D02*
D03*
X256650D02*
D03*
X185650Y185500D02*
D03*
X179350D02*
D03*
X158650Y150000D02*
D03*
X152350D02*
D03*
D14*
X152043Y171260D02*
D03*
Y178740D02*
D03*
X144957Y175000D02*
D03*
X179543Y120260D02*
D03*
Y127740D02*
D03*
X172457Y124000D02*
D03*
D15*
X119000Y125000D02*
D03*
Y135000D02*
D03*
Y145000D02*
D03*
Y155000D02*
D03*
Y165000D02*
D03*
D16*
Y175000D02*
D03*
D17*
X172756Y178000D02*
D03*
Y173000D02*
D03*
Y168000D02*
D03*
Y163000D02*
D03*
Y158000D02*
D03*
Y153000D02*
D03*
Y148000D02*
D03*
X192244Y178000D02*
D03*
Y173000D02*
D03*
Y168000D02*
D03*
Y163000D02*
D03*
Y158000D02*
D03*
Y153000D02*
D03*
Y148000D02*
D03*
D18*
X211071Y118500D02*
D03*
X219929D02*
D03*
X211071Y128000D02*
D03*
X219929D02*
D03*
D19*
X144957Y168456D02*
Y175000D01*
X142000Y165500D02*
X144957Y168456D01*
X146500Y120500D02*
X163500D01*
X142000Y125000D02*
X146500Y120500D01*
X137150Y125000D02*
X142000D01*
X147000Y126500D02*
X151760D01*
X142000Y131500D02*
X147000Y126500D01*
X142000Y131500D02*
Y155000D01*
Y160000D02*
Y165500D01*
Y155000D02*
Y160000D01*
X142000Y155000D02*
X142000Y155000D01*
X137150Y155000D02*
X142000D01*
X133500Y163000D02*
X141500D01*
X112000Y125000D02*
X130850D01*
X109500Y127500D02*
X112000Y125000D01*
X109500Y127500D02*
Y145500D01*
X111500Y165000D02*
X119000D01*
X109500Y163000D02*
X111500Y165000D01*
X109500Y145500D02*
Y163000D01*
X110000Y145000D02*
X119000D01*
X109500Y145500D02*
X110000Y145000D01*
X117000Y175000D02*
X130850D01*
X167500Y139500D02*
X177000D01*
X188500Y128000D02*
Y131500D01*
X193000Y136000D01*
X188500Y123000D02*
Y128000D01*
X194760D01*
X188500Y123000D02*
X193000Y118500D01*
Y136000D02*
X197500D01*
X179543Y127740D02*
X188500D01*
X146500Y185000D02*
X151500D01*
X144000Y187500D02*
X146500Y185000D01*
X136437Y187500D02*
X144000D01*
X165500Y133500D02*
X184500D01*
X164500D02*
X165500D01*
X184500D02*
X192244Y141244D01*
Y148000D01*
X167500Y163000D02*
X172756D01*
X157500Y173000D02*
X167500Y163000D01*
X157500Y173000D02*
Y188500D01*
X193000Y118500D02*
X194760D01*
X165500Y124000D02*
Y126500D01*
Y122500D02*
Y124000D01*
X172457D01*
X219929Y118500D02*
X226000D01*
X230500Y123000D01*
X164500Y142500D02*
Y148000D01*
Y142500D02*
X167500Y139500D01*
X163500Y120500D02*
X165500Y122500D01*
Y126500D02*
Y133500D01*
X159240Y126500D02*
X165500D01*
X225500Y129500D02*
Y133000D01*
X224000Y128000D02*
X225500Y129500D01*
X219929Y128000D02*
X224000D01*
X205500Y153000D02*
X225500Y133000D01*
X206500Y158000D02*
X230500Y134000D01*
Y123000D02*
Y134000D01*
X192244Y153000D02*
X205500D01*
X192244Y158000D02*
X206500D01*
X231000Y139500D02*
X278800D01*
X207500Y163000D02*
X231000Y139500D01*
X192244Y163000D02*
X207500D01*
X137150Y135000D02*
X142000D01*
X163000D02*
X164500Y133500D01*
X158650Y135000D02*
X163000D01*
X256650Y159000D02*
X261500D01*
X263500Y161000D01*
X158650Y142500D02*
X164000D01*
X158650Y150000D02*
X162500D01*
X164500Y148000D01*
X165500Y153000D02*
X172756D01*
X163000Y155500D02*
X165500Y153000D01*
X149500Y155500D02*
X163000D01*
X166000Y158000D02*
X172756D01*
X164000Y160000D02*
X166000Y158000D01*
X142000Y160000D02*
X164000D01*
X162500Y175000D02*
X164500Y173000D01*
X172756D01*
X166000Y178000D02*
X172756D01*
X162500Y181500D02*
X166000Y178000D01*
X162500Y181500D02*
Y185000D01*
X157500Y188500D02*
X160500Y191500D01*
X164500Y148000D02*
X172756D01*
X146500Y149500D02*
Y152500D01*
Y142000D02*
Y149500D01*
X147000Y150000D01*
X152350D01*
X146500Y137000D02*
Y142000D01*
X147000Y142500D01*
X152350D01*
X148500Y135000D02*
X152350D01*
X146500Y137000D02*
X148500Y135000D01*
X146500Y152500D02*
X149500Y155500D01*
X160500Y191500D02*
X241000D01*
X172756Y178000D02*
Y184000D01*
X174256Y185500D01*
X179350D01*
X151500Y179283D02*
X152043Y178740D01*
X151500Y179283D02*
Y185000D01*
X172756Y168000D02*
X179500D01*
X182500Y165000D01*
Y151500D02*
Y165000D01*
X179000Y148000D02*
X182500Y151500D01*
X172756Y148000D02*
X179000D01*
X213000Y168000D02*
X217500Y163500D01*
X213000Y173000D02*
X217500Y177500D01*
X202500Y118500D02*
X211071D01*
X202500Y128000D02*
X211500D01*
X268500Y189500D02*
X278800D01*
X266500Y191500D02*
X268500Y189500D01*
X241000Y191500D02*
X266500D01*
X241000Y183000D02*
Y191500D01*
Y183000D02*
X244500Y179500D01*
X250350D01*
X239000Y165500D02*
X250350D01*
X237000Y163500D02*
X239000Y165500D01*
X227500Y163500D02*
X237000D01*
X244000Y172500D02*
X250350D01*
X239000Y177500D02*
X244000Y172500D01*
X227500Y177500D02*
X239000D01*
X192244Y173000D02*
X213000D01*
X192244Y168000D02*
X213000D01*
X137150Y175000D02*
X144957D01*
X117000Y135000D02*
X130850D01*
X117000Y155000D02*
X130850D01*
X152000Y171216D02*
X152043Y171173D01*
Y171216D02*
Y171260D01*
X263500Y165500D02*
Y172500D01*
Y161000D02*
Y165500D01*
X263500Y165500D02*
X263500Y165500D01*
X256650Y165500D02*
X263500D01*
X263500Y172500D02*
Y179500D01*
X263500Y172500D02*
X263500Y172500D01*
X256650Y172500D02*
X263500D01*
X263500Y179500D02*
X278800D01*
X257150D02*
X263500D01*
X256650Y180000D02*
X257150Y179500D01*
D20*
X104000Y196000D02*
X291000D01*
X104000Y104000D02*
Y196000D01*
Y104000D02*
X291000D01*
Y161500D01*
X288500Y164000D02*
X291000Y161500D01*
Y175500D02*
Y196000D01*
X285000Y169500D02*
X291000Y175500D01*
X278800Y169500D02*
X285000D01*
D21*
X144957Y175000D02*
X144957Y175000D01*
D22*
X227500Y177500D02*
D03*
X217500D02*
D03*
X227500Y163500D02*
D03*
X217500D02*
D03*
D23*
X278800Y149500D02*
D03*
Y139500D02*
D03*
Y129500D02*
D03*
Y179500D02*
D03*
Y159500D02*
D03*
Y169500D02*
D03*
D24*
Y189500D02*
D03*
D25*
X133500Y163000D02*
D03*
X177000Y139500D02*
D03*
X288500Y164000D02*
D03*
X206000Y139500D02*
D03*
D26*
X119000Y175000D02*
D03*
Y165000D02*
D03*
Y155000D02*
D03*
Y145000D02*
D03*
Y135000D02*
D03*
Y125000D02*
D03*
D27*
X197500Y136000D02*
D03*
X143500Y113000D02*
D03*
X162500Y175000D02*
D03*
Y185000D02*
D03*
X151500D02*
D03*
X192500Y185500D02*
D03*
X113000Y187000D02*
D03*
X158000Y165500D02*
D03*
M02*
