M48
;Layer_Color=6321
;FILE_FORMAT=2:5
INCH,LZ
;TYPE=PLATED
T1F00S00C0.02000
T2F00S00C0.02800
T3F00S00C0.04000
T4F00S00C0.04200
%
T01
X01435Y0113
X01975Y0136
X01925Y01855
X01625Y0185
Y0175
X0158Y01655
X01515Y0185
X0113Y0187
T02
X0177Y01395
X0206
X02885Y0164
X01335Y0163
T03
X0119Y0125
Y0135
Y0145
Y0155
X02175Y01635
X02275
Y01775
X02175
X0119Y0175
Y0165
T04
X02788Y01295
Y01395
Y01495
Y01595
Y01695
Y01795
Y01895
M30
